<?xml version="1.0" encoding="iso-8859-1"?>
<!-- Generator: Adobe Illustrator 19.0.0, SVG Export Plug-In . SVG Version: 6.00 Build 0)  -->
<svg version="1.1" id="Capa_1" xmlns="http://www.w3.org/2000/svg" xmlns:xlink="http://www.w3.org/1999/xlink" x="0px" y="0px"
	 viewBox="0 0 512 512" style="enable-background:new 0 0 512 512;" xml:space="preserve">
<path style="fill:#85453D;" d="M328.309,289.237v199.515l-25.24,8.413c-3.988,1.329-6.143,5.64-4.815,9.628
	c1.329,3.988,5.642,6.144,9.628,4.815l30.444-10.149c3.108-1.036,5.204-3.945,5.204-7.221V289.237H328.309z"/>
<path style="fill:#60312C;" d="M389.201,289.237v199.515l-25.24,8.413c-3.988,1.329-6.143,5.64-4.815,9.628
	c1.329,3.988,5.642,6.144,9.628,4.815l30.444-10.149c3.108-1.036,5.204-3.945,5.204-7.221V289.237H389.201z"/>
<path style="fill:#808080;" d="M107.068,289.237v199.515l25.24,8.413c3.988,1.329,6.143,5.64,4.815,9.628
	c-1.329,3.988-5.642,6.144-9.628,4.815l-30.444-10.149c-3.108-1.036-5.204-3.945-5.204-7.221V289.237H107.068z"/>
<path style="fill:#696969;" d="M167.96,289.237v199.515l25.24,8.413c3.988,1.329,6.143,5.64,4.815,9.628
	c-1.329,3.988-5.642,6.144-9.628,4.815l-30.444-10.149c-3.108-1.036-5.204-3.945-5.204-7.221V289.237H167.96z"/>
<path style="fill:#C27749;" d="M427.259,180.139H381.59v15.223h45.669c23.783,0,43.132,19.348,43.132,43.132
	s-19.348,43.132-43.132,43.132H381.59v15.223h45.669c32.177,0,58.355-26.177,58.355-58.355S459.436,180.139,427.259,180.139z"/>
<path style="fill:#EBEBEB;" d="M84.741,281.625c-23.783,0-43.132-19.348-43.132-43.132s19.348-43.132,43.132-43.132h45.669v-15.223
	H84.741c-32.177,0-58.355,26.177-58.355,58.355s26.177,58.355,58.355,58.355h45.669v-15.223H84.741z"/>
<path style="fill:#40211D;" d="M434.87,68.503c0-5.098-2.515-9.599-6.361-12.361c2.497-4.025,3.097-9.145,1.147-13.854
	s-5.996-7.906-10.607-8.986c0.766-4.673-0.638-9.634-4.242-13.238c-3.605-3.605-8.564-5.009-13.238-4.242
	c-1.081-4.611-4.277-8.657-8.986-10.607c-4.709-1.951-9.83-1.35-13.854,1.147C375.965,2.515,371.464,0,366.367,0
	s-9.599,2.515-12.361,6.361c-4.025-2.497-9.145-3.097-13.854-1.147c-4.709,1.951-7.906,5.996-8.986,10.607
	c-4.673-0.766-9.634,0.638-13.238,4.242c-3.605,3.605-5.009,8.564-4.242,13.238c-4.611,1.081-8.657,4.277-10.607,8.986
	c-1.951,4.709-1.35,9.83,1.147,13.854c-3.846,2.762-6.361,7.263-6.361,12.361c0,5.098,2.515,9.599,6.361,12.361
	c-2.497,4.025-3.097,9.145-1.147,13.854c1.951,4.709,5.996,7.906,10.607,8.986c-0.766,4.673,0.638,9.634,4.242,13.238
	c3.748,3.748,8.964,5.133,13.798,4.155h69.283c4.833,0.978,10.049-0.407,13.798-4.155c3.605-3.605,5.009-8.564,4.242-13.238
	c4.611-1.081,8.657-4.277,10.607-8.986c1.951-4.709,1.35-9.83-1.147-13.854C432.355,78.102,434.87,73.601,434.87,68.503z"/>
<path style="fill:#85453D;" d="M366.367,45.669v91.338c25.222,0,45.669-20.447,45.669-45.669S391.589,45.669,366.367,45.669z"/>
<path style="fill:#A45E43;" d="M382.605,91.338c0-25.222-6.816-45.669-15.223-45.669c-25.222,0-45.669,20.447-45.669,45.669
	s20.447,45.669,45.669,45.669C375.789,137.007,382.605,116.56,382.605,91.338z"/>
<path style="fill:#60312C;" d="M366.367,258.791v76.115c25.222,0,45.669-20.447,45.669-45.669L366.367,258.791z"/>
<path style="fill:#85453D;" d="M381.59,289.237l-15.223-30.446l-45.669,30.446c0,25.222,20.447,45.669,45.669,45.669
	C374.774,334.906,381.59,314.459,381.59,289.237z"/>
<polygon style="fill:#FFCB63;" points="396.813,167.453 366.367,167.453 356.218,228.345 366.367,289.237 417.11,289.237 "/>
<polygon style="fill:#FFE2A8;" points="335.921,167.453 315.623,289.237 366.367,289.237 366.367,167.453 "/>
<path style="fill:#E18F4E;" d="M305.475,187.75v131.933c16.815,0,30.446-13.631,30.446-30.446V167.453h-10.149
	C314.562,167.453,305.475,176.54,305.475,187.75z"/>
<path style="fill:#C27749;" d="M406.961,167.453h-10.149v121.784c0,16.815,13.631,30.446,30.446,30.446V187.75
	C427.259,176.54,418.172,167.453,406.961,167.453z"/>
<path style="fill:#CCCCCC;" d="M252.194,149.693h-15.223c-4.204,0-7.611,3.408-7.611,7.611c0,4.204,3.408,7.611,7.611,7.611h15.223
	c4.197,0,7.612,3.414,7.612,7.611c0,4.197-3.414,7.612-7.612,7.612H130.41v15.223h121.784c12.59,0,22.835-10.243,22.835-22.835
	C275.029,159.936,264.785,149.693,252.194,149.693z"/>
<path style="fill:#FFA754;" d="M259.806,104.024c4.205,0,7.611-3.408,7.611-7.611s-3.407-7.611-7.611-7.611h-15.223V67.54
	c13.117-3.389,22.834-15.322,22.834-29.483c0-16.788-13.658-30.446-30.446-30.446s-30.446,13.658-30.446,30.446
	c0,14.16,9.717,26.094,22.834,29.483v59.318c0,4.204,3.408,7.611,7.611,7.611h22.835c4.205,0,7.611-3.408,7.611-7.611
	c0-4.204-3.407-7.611-7.611-7.611h-15.223v-15.223H259.806z M221.748,38.057c0-8.394,6.829-15.223,15.223-15.223
	s15.223,6.829,15.223,15.223s-6.829,15.223-15.223,15.223S221.748,46.451,221.748,38.057z"/>
<rect x="105.039" y="167.422" style="fill:#EBEBEB;" width="50.743" height="76.094"/>
<path style="fill:#4F4F4F;" d="M155.782,167.422L130.41,213.08H99.964l30.446,60.903h45.669V187.72
	C176.079,176.51,166.992,167.422,155.782,167.422z"/>
<path style="fill:#696969;" d="M105.039,167.422c-11.21,0-20.297,9.087-20.297,20.297v86.264h45.669V213.08L105.039,167.422z"/>
<path style="fill:#C96F3D;" d="M140.559,0c-3.776,0-7.27,1.187-10.149,3.197C127.532,1.187,124.038,0,120.262,0
	c-9.809,0-17.76,7.951-17.76,17.76c0,15.414,12.495,27.909,27.909,27.909s27.909-12.495,27.909-27.909
	C158.319,7.951,150.368,0,140.559,0z"/>
<path style="fill:#FFB4A9;" d="M130.41,45.669v91.338c25.222,0,45.669-20.447,45.669-45.669S155.633,45.669,130.41,45.669z"/>
<path style="fill:#FFD9D4;" d="M145.633,91.338c0-25.222-6.816-45.669-15.223-45.669c-25.222,0-45.669,20.447-45.669,45.669
	s20.447,45.669,45.669,45.669C138.817,137.007,145.633,116.56,145.633,91.338z"/>
<path style="fill:#353535;" d="M175.826,258.76H145.38l15.223,91.338h30.446v-51.083
	C191.049,283.578,185.293,269.493,175.826,258.76z"/>
<path style="fill:#4F4F4F;" d="M145.38,258.76H84.488c-9.468,10.732-15.223,24.818-15.223,40.255v51.083h91.338v-51.083
	C160.603,283.578,154.847,269.493,145.38,258.76z"/>
<g>
</g>
<g>
</g>
<g>
</g>
<g>
</g>
<g>
</g>
<g>
</g>
<g>
</g>
<g>
</g>
<g>
</g>
<g>
</g>
<g>
</g>
<g>
</g>
<g>
</g>
<g>
</g>
<g>
</g>
</svg>
